<?xml version="1.0" encoding="UTF-8" standalone="no"?>
<!DOCTYPE svg PUBLIC "-//W3C//DTD SVG 1.1//EN"
 "http://www.w3.org/Graphics/SVG/1.1/DTD/svg11.dtd">
<!-- Generated by graphviz version 2.49.3 (20211023.0002)
 -->
<!-- Title: G Pages: 1 -->
<svg width="5340pt" height="278pt"
 viewBox="0.00 0.00 5339.82 278.17" xmlns="http://www.w3.org/2000/svg" xmlns:xlink="http://www.w3.org/1999/xlink">
<g id="graph0" class="graph" transform="scale(1 1) rotate(0) translate(4 274.17)">
<title>G</title>
<polygon fill="white" stroke="transparent" points="-4,4 -4,-274.17 5335.82,-274.17 5335.82,4 -4,4"/>
<!-- v53 -->
<g id="node1" class="node">
<title>v53</title>
<ellipse fill="none" stroke="black" cx="3634.14" cy="-18" rx="284.85" ry="18"/>
<text text-anchor="middle" x="3634.14" y="-14.3" font-family="Times,serif" font-size="14.00">(53) range {&quot;start&quot;:{&quot;line&quot;:1,&quot;character&quot;:8},&quot;end&quot;:{&quot;line&quot;:1,&quot;character&quot;:9}}</text>
</g>
<!-- v13 -->
<g id="node2" class="node">
<title>v13</title>
<ellipse fill="none" stroke="black" cx="1630.14" cy="-135.08" rx="86.38" ry="18"/>
<text text-anchor="middle" x="1630.14" y="-131.38" font-family="Times,serif" font-size="14.00">(13) definitionResult</text>
</g>
<!-- v51 -->
<g id="node3" class="node">
<title>v51</title>
<ellipse fill="none" stroke="black" cx="2684.14" cy="-18" rx="293.55" ry="18"/>
<text text-anchor="middle" x="2684.14" y="-14.3" font-family="Times,serif" font-size="14.00">(51) range {&quot;start&quot;:{&quot;line&quot;:0,&quot;character&quot;:16},&quot;end&quot;:{&quot;line&quot;:0,&quot;character&quot;:21}}</text>
</g>
<!-- v13&#45;&gt;v51 -->
<g id="edge13" class="edge">
<title>v13&#45;&gt;v51</title>
<path fill="none" stroke="black" d="M1646.91,-117.14C1667.35,-97.77 1703.91,-67.05 1742.14,-54 1801.94,-33.59 2132.41,-25.07 2385.22,-21.52"/>
<polygon fill="black" stroke="black" points="2385.36,-25.02 2395.31,-21.38 2385.26,-18.02 2385.36,-25.02"/>
<text text-anchor="middle" x="1768.14" y="-57.8" font-family="Times,serif" font-size="14.00">(52) item</text>
</g>
<!-- v43 -->
<g id="node4" class="node">
<title>v43</title>
<ellipse fill="none" stroke="black" cx="4462.14" cy="-135.08" rx="85.29" ry="18"/>
<text text-anchor="middle" x="4462.14" y="-131.38" font-family="Times,serif" font-size="14.00">(43) referenceResult</text>
</g>
<!-- v55 -->
<g id="node11" class="node">
<title>v55</title>
<ellipse fill="none" stroke="black" cx="4282.14" cy="-18" rx="289.45" ry="18"/>
<text text-anchor="middle" x="4282.14" y="-14.3" font-family="Times,serif" font-size="14.00">(55) range {&quot;start&quot;:{&quot;line&quot;:2,&quot;character&quot;:9},&quot;end&quot;:{&quot;line&quot;:2,&quot;character&quot;:10}}</text>
</g>
<!-- v43&#45;&gt;v55 -->
<g id="edge2" class="edge">
<title>v43&#45;&gt;v55</title>
<path fill="none" stroke="black" d="M4436.73,-117.84C4405.56,-97.9 4352.52,-63.99 4317.4,-41.54"/>
<polygon fill="black" stroke="black" points="4319.2,-38.54 4308.89,-36.1 4315.43,-44.44 4319.2,-38.54"/>
<text text-anchor="middle" x="4382.14" y="-57.8" font-family="Times,serif" font-size="14.00">(56) item</text>
</g>
<!-- v4 -->
<g id="node5" class="node">
<title>v4</title>
<ellipse fill="none" stroke="black" cx="3099.14" cy="-135.08" rx="80.69" ry="18"/>
<text text-anchor="middle" x="3099.14" y="-131.38" font-family="Times,serif" font-size="14.00">(4) referenceResult</text>
</g>
<!-- v50 -->
<g id="node6" class="node">
<title>v50</title>
<ellipse fill="none" stroke="black" cx="3964.14" cy="-135.08" rx="394.53" ry="18"/>
<text text-anchor="middle" x="3964.14" y="-131.38" font-family="Times,serif" font-size="14.00">(50) document &quot;file:///Users/olafurpg/dev/sourcegraph/lsif&#45;node/snapshots/input/example/src/example.ts&quot;</text>
</g>
<!-- v50&#45;&gt;v53 -->
<g id="edge19" class="edge">
<title>v50&#45;&gt;v53</title>
<path fill="none" stroke="black" d="M3922.45,-117.17C3880.13,-100.27 3812.56,-73.98 3753.14,-54 3737.34,-48.69 3720.21,-43.38 3704,-38.57"/>
<polygon fill="black" stroke="black" points="3704.63,-35.11 3694.05,-35.65 3702.65,-41.83 3704.63,-35.11"/>
<text text-anchor="middle" x="3831.14" y="-57.8" font-family="Times,serif" font-size="14.00">(57) contains</text>
</g>
<!-- v50&#45;&gt;v51 -->
<g id="edge18" class="edge">
<title>v50&#45;&gt;v51</title>
<path fill="none" stroke="black" d="M3875.05,-117.51C3817.47,-105.95 3741.22,-89.03 3675.14,-69 3657.37,-63.61 3654.34,-57.73 3636.14,-54 3603.02,-47.22 3223.79,-34.82 2954.12,-26.75"/>
<polygon fill="black" stroke="black" points="2953.87,-23.24 2943.77,-26.44 2953.66,-30.24 2953.87,-23.24"/>
<text text-anchor="middle" x="3712.14" y="-57.8" font-family="Times,serif" font-size="14.00">(57) contains</text>
</g>
<!-- v50&#45;&gt;v55 -->
<g id="edge20" class="edge">
<title>v50&#45;&gt;v55</title>
<path fill="none" stroke="black" d="M4011.06,-117.1C4068.38,-96.36 4165.23,-61.31 4226.32,-39.2"/>
<polygon fill="black" stroke="black" points="4227.59,-42.46 4235.8,-35.77 4225.21,-35.88 4227.59,-42.46"/>
<text text-anchor="middle" x="4217.14" y="-57.8" font-family="Times,serif" font-size="14.00">(57) contains</text>
</g>
<!-- v41 -->
<g id="node7" class="node">
<title>v41</title>
<ellipse fill="none" stroke="black" cx="3465.14" cy="-135.08" rx="86.38" ry="18"/>
<text text-anchor="middle" x="3465.14" y="-131.38" font-family="Times,serif" font-size="14.00">(41) definitionResult</text>
</g>
<!-- v41&#45;&gt;v53 -->
<g id="edge17" class="edge">
<title>v41&#45;&gt;v53</title>
<path fill="none" stroke="black" d="M3489.36,-117.59C3518.6,-97.68 3567.93,-64.09 3600.77,-41.73"/>
<polygon fill="black" stroke="black" points="3602.85,-44.54 3609.15,-36.02 3598.91,-38.76 3602.85,-44.54"/>
<text text-anchor="middle" x="3606.14" y="-57.8" font-family="Times,serif" font-size="14.00">(54) item</text>
</g>
<!-- v15 -->
<g id="node8" class="node">
<title>v15</title>
<ellipse fill="none" stroke="black" cx="85.14" cy="-135.08" rx="85.29" ry="18"/>
<text text-anchor="middle" x="85.14" y="-131.38" font-family="Times,serif" font-size="14.00">(15) referenceResult</text>
</g>
<!-- v16 -->
<g id="node9" class="node">
<title>v16</title>
<ellipse fill="none" stroke="black" cx="397.14" cy="-135.08" rx="209.11" ry="48.17"/>
<text text-anchor="middle" x="397.14" y="-153.88" font-family="Times,serif" font-size="14.00">(16) hoverResult &quot;export function hello(): string {</text>
<text text-anchor="middle" x="397.14" y="-138.88" font-family="Times,serif" font-size="14.00"> &#160;const a = &#39;a&#39;</text>
<text text-anchor="middle" x="397.14" y="-123.88" font-family="Times,serif" font-size="14.00"> &#160;return a</text>
<text text-anchor="middle" x="397.14" y="-108.88" font-family="Times,serif" font-size="14.00">}&quot;</text>
</g>
<!-- v20 -->
<g id="node10" class="node">
<title>v20</title>
<ellipse fill="none" stroke="black" cx="1075.14" cy="-135.08" rx="450.32" ry="18"/>
<text text-anchor="middle" x="1075.14" y="-131.38" font-family="Times,serif" font-size="14.00">(20) moniker {&quot;Kind&quot;:&quot;export&quot;,&quot;Scheme&quot;:&quot;lsif&#45;node&quot;,&quot;Identifier&quot;:&quot;lsif&#45;node npm example 1.0.0 src/example.ts/hello().&quot;}</text>
</g>
<!-- v11 -->
<g id="node17" class="node">
<title>v11</title>
<ellipse fill="none" stroke="black" cx="1601.14" cy="-18" rx="247.76" ry="18"/>
<text text-anchor="middle" x="1601.14" y="-14.3" font-family="Times,serif" font-size="14.00">(11) packageInformation {&quot;Name&quot;:&quot;example&quot;,&quot;Version&quot;:&quot;1.0.0&quot;}</text>
</g>
<!-- v20&#45;&gt;v11 -->
<g id="edge16" class="edge">
<title>v20&#45;&gt;v11</title>
<path fill="none" stroke="black" d="M1151.91,-117.29C1249.18,-96.01 1416.26,-59.45 1516.95,-37.42"/>
<polygon fill="black" stroke="black" points="1517.76,-40.83 1526.78,-35.27 1516.26,-33.99 1517.76,-40.83"/>
<text text-anchor="middle" x="1501.14" y="-57.8" font-family="Times,serif" font-size="14.00">(22) packageInformation</text>
</g>
<!-- v3 -->
<g id="node12" class="node">
<title>v3</title>
<ellipse fill="none" stroke="black" cx="2945.14" cy="-252.17" rx="55.49" ry="18"/>
<text text-anchor="middle" x="2945.14" y="-248.47" font-family="Times,serif" font-size="14.00">(3) resultSet</text>
</g>
<!-- v3&#45;&gt;v4 -->
<g id="edge7" class="edge">
<title>v3&#45;&gt;v4</title>
<path fill="none" stroke="black" d="M2986.93,-240.33C3003.28,-234.8 3021.57,-226.92 3036.14,-216.17 3056.02,-201.5 3072.96,-179 3084.25,-161.58"/>
<polygon fill="black" stroke="black" points="3087.28,-163.34 3089.63,-153 3081.35,-159.62 3087.28,-163.34"/>
<text text-anchor="middle" x="3133.64" y="-204.97" font-family="Times,serif" font-size="14.00">(7) textDocument/references</text>
</g>
<!-- v9 -->
<g id="node13" class="node">
<title>v9</title>
<ellipse fill="none" stroke="black" cx="2154.14" cy="-135.08" rx="419.43" ry="18"/>
<text text-anchor="middle" x="2154.14" y="-131.38" font-family="Times,serif" font-size="14.00">(9) moniker {&quot;Kind&quot;:&quot;export&quot;,&quot;Scheme&quot;:&quot;lsif&#45;node&quot;,&quot;Identifier&quot;:&quot;lsif&#45;node npm example 1.0.0 src/example.ts/&quot;}</text>
</g>
<!-- v3&#45;&gt;v9 -->
<g id="edge9" class="edge">
<title>v3&#45;&gt;v9</title>
<path fill="none" stroke="black" d="M2895.66,-243.97C2773.32,-226.17 2453.72,-179.67 2276.66,-153.91"/>
<polygon fill="black" stroke="black" points="2276.91,-150.41 2266.51,-152.43 2275.9,-157.34 2276.91,-150.41"/>
<text text-anchor="middle" x="2727.14" y="-204.97" font-family="Times,serif" font-size="14.00">(10) moniker</text>
</g>
<!-- v2 -->
<g id="node19" class="node">
<title>v2</title>
<ellipse fill="none" stroke="black" cx="3279.14" cy="-135.08" rx="81.79" ry="18"/>
<text text-anchor="middle" x="3279.14" y="-131.38" font-family="Times,serif" font-size="14.00">(2) definitionResult</text>
</g>
<!-- v3&#45;&gt;v2 -->
<g id="edge6" class="edge">
<title>v3&#45;&gt;v2</title>
<path fill="none" stroke="black" d="M2999.85,-249.11C3068.63,-245.68 3182.09,-236.99 3218.14,-216.17 3239.67,-203.74 3256.1,-180.4 3266.46,-162.12"/>
<polygon fill="black" stroke="black" points="3269.66,-163.56 3271.32,-153.1 3263.49,-160.24 3269.66,-163.56"/>
<text text-anchor="middle" x="3316.64" y="-204.97" font-family="Times,serif" font-size="14.00">(6) textDocument/definition</text>
</g>
<!-- v5 -->
<g id="node20" class="node">
<title>v5</title>
<ellipse fill="none" stroke="black" cx="2796.14" cy="-135.08" rx="204.21" ry="48.17"/>
<text text-anchor="middle" x="2796.14" y="-153.88" font-family="Times,serif" font-size="14.00">(5) hoverResult &quot;export function hello(): string {</text>
<text text-anchor="middle" x="2796.14" y="-138.88" font-family="Times,serif" font-size="14.00"> &#160;const a = &#39;a&#39;</text>
<text text-anchor="middle" x="2796.14" y="-123.88" font-family="Times,serif" font-size="14.00"> &#160;return a</text>
<text text-anchor="middle" x="2796.14" y="-108.88" font-family="Times,serif" font-size="14.00">}&quot;</text>
</g>
<!-- v3&#45;&gt;v5 -->
<g id="edge3" class="edge">
<title>v3&#45;&gt;v5</title>
<path fill="none" stroke="black" d="M2924.74,-235.41C2908.69,-223.02 2885.39,-205.02 2863.02,-187.73"/>
<polygon fill="black" stroke="black" points="2864.88,-184.75 2854.83,-181.41 2860.6,-190.29 2864.88,-184.75"/>
<text text-anchor="middle" x="2964.64" y="-204.97" font-family="Times,serif" font-size="14.00">(8) textDocument/hover</text>
</g>
<!-- v9&#45;&gt;v11 -->
<g id="edge8" class="edge">
<title>v9&#45;&gt;v11</title>
<path fill="none" stroke="black" d="M2083.76,-117.26C2012.09,-100.36 1897.67,-74.02 1798.14,-54 1767.85,-47.91 1734.83,-41.82 1704.63,-36.48"/>
<polygon fill="black" stroke="black" points="1704.96,-32.98 1694.5,-34.69 1703.74,-39.87 1704.96,-32.98"/>
<text text-anchor="middle" x="1937.14" y="-57.8" font-family="Times,serif" font-size="14.00">(12) packageInformation</text>
</g>
<!-- v14 -->
<g id="node14" class="node">
<title>v14</title>
<ellipse fill="none" stroke="black" cx="567.14" cy="-252.17" rx="59.59" ry="18"/>
<text text-anchor="middle" x="567.14" y="-248.47" font-family="Times,serif" font-size="14.00">(14) resultSet</text>
</g>
<!-- v14&#45;&gt;v13 -->
<g id="edge4" class="edge">
<title>v14&#45;&gt;v13</title>
<path fill="none" stroke="black" d="M626.78,-249.96C809.82,-245.81 1361.58,-229.64 1534.14,-183.17 1555.36,-177.45 1577.48,-166.96 1595.13,-157.32"/>
<polygon fill="black" stroke="black" points="1596.92,-160.34 1603.93,-152.39 1593.49,-154.23 1596.92,-160.34"/>
<text text-anchor="middle" x="1520.14" y="-204.97" font-family="Times,serif" font-size="14.00">(17) textDocument/definition</text>
</g>
<!-- v14&#45;&gt;v15 -->
<g id="edge5" class="edge">
<title>v14&#45;&gt;v15</title>
<path fill="none" stroke="black" d="M509.38,-247.16C432.19,-240.43 292.03,-223.43 179.14,-183.17 159.56,-176.18 138.79,-166.09 121.77,-157.04"/>
<polygon fill="black" stroke="black" points="123.2,-153.83 112.74,-152.15 119.86,-159.99 123.2,-153.83"/>
<text text-anchor="middle" x="378.14" y="-204.97" font-family="Times,serif" font-size="14.00">(18) textDocument/references</text>
</g>
<!-- v14&#45;&gt;v16 -->
<g id="edge14" class="edge">
<title>v14&#45;&gt;v16</title>
<path fill="none" stroke="black" d="M543.86,-235.41C525.15,-222.74 497.79,-204.22 471.75,-186.59"/>
<polygon fill="black" stroke="black" points="473.59,-183.61 463.35,-180.9 469.67,-189.41 473.59,-183.61"/>
<text text-anchor="middle" x="584.14" y="-204.97" font-family="Times,serif" font-size="14.00">(19) textDocument/hover</text>
</g>
<!-- v14&#45;&gt;v20 -->
<g id="edge15" class="edge">
<title>v14&#45;&gt;v20</title>
<path fill="none" stroke="black" d="M613.57,-240.65C699.2,-221.25 883.08,-179.59 991.12,-155.12"/>
<polygon fill="black" stroke="black" points="992.03,-158.5 1001.01,-152.88 990.49,-151.67 992.03,-158.5"/>
<text text-anchor="middle" x="813.14" y="-204.97" font-family="Times,serif" font-size="14.00">(21) moniker</text>
</g>
<!-- v44 -->
<g id="node15" class="node">
<title>v44</title>
<ellipse fill="none" stroke="black" cx="4668.14" cy="-135.08" rx="102.88" ry="18"/>
<text text-anchor="middle" x="4668.14" y="-131.38" font-family="Times,serif" font-size="14.00">(44) hoverResult &quot;a = &#39;a&#39;&quot;</text>
</g>
<!-- v48 -->
<g id="node16" class="node">
<title>v48</title>
<ellipse fill="none" stroke="black" cx="5060.14" cy="-135.08" rx="271.85" ry="18"/>
<text text-anchor="middle" x="5060.14" y="-131.38" font-family="Times,serif" font-size="14.00">(48) moniker {&quot;Kind&quot;:&quot;export&quot;,&quot;Scheme&quot;:&quot;local&quot;,&quot;Identifier&quot;:&quot;local 2&quot;}</text>
</g>
<!-- v42 -->
<g id="node18" class="node">
<title>v42</title>
<ellipse fill="none" stroke="black" cx="4572.14" cy="-252.17" rx="59.59" ry="18"/>
<text text-anchor="middle" x="4572.14" y="-248.47" font-family="Times,serif" font-size="14.00">(42) resultSet</text>
</g>
<!-- v42&#45;&gt;v43 -->
<g id="edge1" class="edge">
<title>v42&#45;&gt;v43</title>
<path fill="none" stroke="black" d="M4517.54,-244.72C4499.43,-239.79 4480.92,-231.17 4469.14,-216.17 4457.69,-201.57 4456.25,-180.55 4457.5,-163.71"/>
<polygon fill="black" stroke="black" points="4461.02,-163.67 4458.64,-153.35 4454.07,-162.91 4461.02,-163.67"/>
<text text-anchor="middle" x="4553.14" y="-204.97" font-family="Times,serif" font-size="14.00">(46) textDocument/references</text>
</g>
<!-- v42&#45;&gt;v41 -->
<g id="edge11" class="edge">
<title>v42&#45;&gt;v41</title>
<path fill="none" stroke="black" d="M4512.4,-250.21C4323.59,-246.71 3741.52,-232.12 3560.14,-183.17 3539.11,-177.49 3517.21,-167 3499.75,-157.35"/>
<polygon fill="black" stroke="black" points="3501.48,-154.31 3491.06,-152.42 3498.03,-160.4 3501.48,-154.31"/>
<text text-anchor="middle" x="3855.14" y="-204.97" font-family="Times,serif" font-size="14.00">(45) textDocument/definition</text>
</g>
<!-- v42&#45;&gt;v44 -->
<g id="edge10" class="edge">
<title>v42&#45;&gt;v44</title>
<path fill="none" stroke="black" d="M4610.5,-238.16C4621.63,-232.82 4632.97,-225.61 4641.14,-216.17 4654.02,-201.28 4660.82,-180 4664.37,-163.12"/>
<polygon fill="black" stroke="black" points="4667.81,-163.74 4666.19,-153.28 4660.93,-162.47 4667.81,-163.74"/>
<text text-anchor="middle" x="4722.14" y="-204.97" font-family="Times,serif" font-size="14.00">(47) textDocument/hover</text>
</g>
<!-- v42&#45;&gt;v48 -->
<g id="edge12" class="edge">
<title>v42&#45;&gt;v48</title>
<path fill="none" stroke="black" d="M4627.11,-244.82C4672.92,-239.01 4739.72,-229.31 4797.14,-216.17 4868.98,-199.73 4949.82,-173.99 5002.68,-156.15"/>
<polygon fill="black" stroke="black" points="5003.88,-159.44 5012.22,-152.91 5001.63,-152.81 5003.88,-159.44"/>
<text text-anchor="middle" x="4893.14" y="-204.97" font-family="Times,serif" font-size="14.00">(49) moniker</text>
</g>
</g>
</svg>
